# xmcd
#
# Track frame offsets: 
#        150
#        17505
#        32345
#        46888
#        63558
#        78538
#        97425
#        113505
#        133068
#        147135
#
# Disc length: 2138 seconds
#
# Revision: 0
# Processed by: cddbd v1.5.2PL0 Copyright (c) Steve Scherf et al.
# Submitted via: ExactAudioCopy v1.0b3
#
DISCID=8108580a
DTITLE=The Stylistics - Thank You Baby
DYEAR=1975
DGENRE=Soul
TTITLE0=Thank You Baby 
TTITLE1=Can't Give You Anything (But My Love) 
TTITLE2=What Goes Around Comes Around 
TTITLE3=I'd Rather Be Hurt By You (Than Be Loved By Somebody else)
TTITLE4=Disco Baby 
TTITLE5=Tears And Souvenirs 
TTITLE6=A Honky Tonk Cafe 
TTITLE7=I'm Gonna Win 
TTITLE8=Stay 
TTITLE9=Sing Baby Sing 
EXTD=
EXTT0=
EXTT1=
EXTT2=
EXTT3=
EXTT4=
EXTT5=
EXTT6=
EXTT7=
EXTT8=
EXTT9=
PLAYORDER=
